<svg height="23.279535" viewBox="0 0 11.87364 6.1593771" width="44.876751" xmlns="http://www.w3.org/2000/svg"><g fill="#0e0e0e" transform="translate(-.41318 -3.231669)"><g stroke-width=".227719" transform="matrix(.0790246 0 0 .0790246 5.450542 -20.801986)"><path d="m-24.813949 356.31991 14.8673112 25.75139h45.0003508l14.867312-25.75139h-15.248166l-7.4998 12.99041h-29.9997198l-7.5003162-12.99041z"/><path d="m1.2396122 336.49011 3.948597 6.83937-3.684013 6.38049h15.2481608l3.81631-6.60993-3.81631-6.60993z"/><path d="m-28.630253 336.49011-3.816305 6.60993 3.816305 6.60993h14.487487l-3.684013-6.38049 3.948597-6.83937z"/><path d="m-9.9466378 304.12878-14.8673112 25.7514h14.752072l7.2352162-12.53154h29.9997198l7.235216 12.53154h15.51275l-14.867312-25.7514z"/></g><path d="m2.191227 3.2316688-1.77804723 3.0796882 1.77804723 3.079689h1.1448679l-.5822146-1.0084313-1.1853783-2.0531255 1.1853783-2.0531259.603164-1.0446945z" stroke-width=".024991"/><path d="m10.508773 3.2316688 1.778047 3.0796882-1.778047 3.079689h-1.1448673l.5822146-1.0084313 1.1853777-2.0531255-1.1853777-2.0531259-.603164-1.0446945z" stroke-width=".024991"/><g stroke-width=".227719" transform="matrix(.0790246 0 0 .0790246 5.450542 -20.801986)"><path d="m-24.813949 356.31991 14.8673112 25.75139h45.0003508l14.867312-25.75139h-15.248166l-7.4998 12.99041h-29.9997198l-7.5003162-12.99041z"/><path d="m1.2396122 336.49011 3.948597 6.83937-3.684013 6.38049h15.2481608l3.81631-6.60993-3.81631-6.60993z"/><path d="m-28.630253 336.49011-3.816305 6.60993 3.816305 6.60993h14.487487l-3.684013-6.38049 3.948597-6.83937z"/><path d="m-9.9466378 304.12878-14.8673112 25.7514h14.752072l7.2352162-12.53154h29.9997198l7.235216 12.53154h15.51275l-14.867312-25.7514z"/></g></g></svg>