<?xml version="1.0" encoding="UTF-8" standalone="no"?>
<!-- Created with Inkscape (http://www.inkscape.org/) -->

<svg
   width="44.876751"
   height="23.571632"
   viewBox="0 0 11.87364 6.2366611"
   version="1.1"
   id="svg1958"
   inkscape:version="1.1.1 (26b7af14f2, 2022-01-19)"
   sodipodi:docname="logo2.svg"
   xmlns:inkscape="http://www.inkscape.org/namespaces/inkscape"
   xmlns:sodipodi="http://sodipodi.sourceforge.net/DTD/sodipodi-0.dtd"
   xmlns="http://www.w3.org/2000/svg"
   xmlns:svg="http://www.w3.org/2000/svg">
  
  <defs
     id="defs1955" />
  <g
     inkscape:label="Layer 1"
     inkscape:groupmode="layer"
     id="layer1"
     transform="translate(-0.41317977,-3.2316695)">
    <g
       id="g1821"
       transform="matrix(0.0790246,0,0,0.0790246,0.5469865,-3.4040167)"
       style="fill:#f3f3f3;fill-opacity:1">
      <g
         id="g7755"
         transform="translate(62.050995,-220.1589)"
         style="fill:#f3f3f3;fill-opacity:1">
        <path
           style="opacity:1;fill:#f3f3f3;stroke-width:0.227719;fill-opacity:1"
           d="M -24.813949,356.31991 -9.9466378,382.0713 H 35.053713 L 49.921025,356.31991 H 34.672859 l -7.4998,12.99041 H -2.8266608 l -7.5003162,-12.99041 z"
           id="path3049" />
        <path
           style="opacity:1;fill:#f3f3f3;stroke-width:0.227719;fill-opacity:1"
           d="m 1.2396122,336.49011 3.948597,6.83937 -3.684013,6.38049 H 16.752357 l 3.81631,-6.60993 -3.81631,-6.60993 z"
           id="path3047" />
        <path
           style="opacity:1;fill:#f3f3f3;stroke-width:0.227719;fill-opacity:1"
           d="m -28.630253,336.49011 -3.816305,6.60993 3.816305,6.60993 h 14.487487 l -3.684013,-6.38049 3.948597,-6.83937 z"
           id="path3045" />
        <path
           style="opacity:1;fill:#f3f3f3;stroke-width:0.227719;fill-opacity:1"
           d="m -9.9466378,304.12878 -14.8673112,25.7514 h 14.752072 l 7.2352162,-12.53154 H 27.173059 l 7.235216,12.53154 h 15.51275 l -14.867312,-25.7514 z"
           id="path1664" />
      </g>
      <path
         id="path1492"
         style="opacity:1;fill:#f3f3f3;stroke-width:0.316243;fill-opacity:1"
         d="M 20.806692,84.94785 -1.6932288,123.91911 20.806692,162.89038 H 35.294179 L 27.926669,150.1294 12.926551,124.14856 27.926669,98.167715 35.559279,84.94785 Z" />
      <path
         id="path1533"
         style="opacity:1;fill:#f3f3f3;stroke-width:0.316243;fill-opacity:1"
         d="m 126.05931,84.94785 22.49992,38.97126 -22.49992,38.97127 h -14.48748 l 7.36751,-12.76098 15.00011,-25.98084 -15.00011,-25.980845 -7.63261,-13.219865 z" />
      <g
         id="g1543"
         transform="translate(62.050995,-220.1589)"
         style="fill:#f3f3f3;fill-opacity:1">
        <path
           style="opacity:1;fill:#f3f3f3;stroke-width:0.227719;fill-opacity:1"
           d="M -24.813949,356.31991 -9.9466378,382.0713 H 35.053713 L 49.921025,356.31991 H 34.672859 l -7.4998,12.99041 H -2.8266608 l -7.5003162,-12.99041 z"
           id="path1535" />
        <path
           style="opacity:1;fill:#f3f3f3;stroke-width:0.227719;fill-opacity:1"
           d="m 1.2396122,336.49011 3.948597,6.83937 -3.684013,6.38049 H 16.752357 l 3.81631,-6.60993 -3.81631,-6.60993 z"
           id="path1537" />
        <path
           style="opacity:1;fill:#f3f3f3;stroke-width:0.227719;fill-opacity:1"
           d="m -28.630253,336.49011 -3.816305,6.60993 3.816305,6.60993 h 14.487487 l -3.684013,-6.38049 3.948597,-6.83937 z"
           id="path1539" />
        <path
           style="opacity:1;fill:#f3f3f3;stroke-width:0.227719;fill-opacity:1"
           d="m -9.9466378,304.12878 -14.8673112,25.7514 h 14.752072 l 7.2352162,-12.53154 H 27.173059 l 7.235216,12.53154 h 15.51275 l -14.867312,-25.7514 z"
           id="path1541" />
      </g>
    </g>
  </g>
</svg>
