<?xml version="1.0" encoding="iso-8859-1"?>
<!-- Generator: Adobe Illustrator 18.0.0, SVG Export Plug-In . SVG Version: 6.00 Build 0)  -->
<!DOCTYPE svg PUBLIC "-//W3C//DTD SVG 1.1//EN" "http://www.w3.org/Graphics/SVG/1.1/DTD/svg11.dtd">
<svg version="1.1" id="Capa_1" xmlns="http://www.w3.org/2000/svg" xmlns:xlink="http://www.w3.org/1999/xlink" x="0px" y="0px"
	 viewBox="0 0 60 60" style="enable-background:new 0 0 60 60;" xml:space="preserve">
<g>
	<path d="M18.29,58.29C18.109,58.48,18,58.74,18,59c0,0.26,0.109,0.52,0.29,0.71C18.479,59.89,18.74,60,19,60
		c0.27,0,0.52-0.11,0.71-0.29C19.899,59.52,20,59.26,20,59c0-0.26-0.11-0.52-0.29-0.71C19.34,57.92,18.66,57.92,18.29,58.29z"/>
	<path d="M19,19.33c-0.55,0-1,0.45-1,1c0,0.56,0.45,1,1,1s1-0.44,1-1C20,19.78,19.55,19.33,19,19.33z"/>
	<path d="M19,27.07c-0.55,0-1,0.44-1,1c0,0.55,0.45,1,1,1s1-0.45,1-1C20,27.51,19.55,27.07,19,27.07z"/>
	<path d="M19,30.93c-0.55,0-1,0.45-1,1c0,0.56,0.45,1,1,1s1-0.44,1-1C20,31.38,19.55,30.93,19,30.93z"/>
	<path d="M19,15.47c-0.55,0-1,0.44-1,1c0,0.55,0.45,1,1,1s1-0.45,1-1C20,15.91,19.55,15.47,19,15.47z"/>
	<circle cx="19" cy="12.6" r="1"/>
	<path d="M19,7.73c-0.55,0-1,0.45-1,1c0,0.56,0.45,1,1,1s1-0.44,1-1C20,8.18,19.55,7.73,19,7.73z"/>
	<circle cx="19" cy="47.4" r="1"/>
	<path d="M19,50.27c-0.55,0-1,0.44-1,1c0,0.55,0.45,1,1,1s1-0.45,1-1C20,50.71,19.55,50.27,19,50.27z"/>
	<path d="M19,54.13c-0.55,0-1,0.45-1,1c0,0.56,0.45,1,1,1s1-0.44,1-1C20,54.58,19.55,54.13,19,54.13z"/>
	<path d="M19,42.53c-0.55,0-1,0.45-1,1c0,0.56,0.45,1,1,1s1-0.44,1-1C20,42.98,19.55,42.53,19,42.53z"/>
	<path d="M19,38.67c-0.55,0-1,0.44-1,1c0,0.55,0.45,1,1,1s1-0.45,1-1C20,39.11,19.55,38.67,19,38.67z"/>
	<circle cx="19" cy="35.8" r="1"/>
	<circle cx="19" cy="24.2" r="1"/>
	<path d="M19,3.87c-0.55,0-1,0.44-1,1c0,0.55,0.45,1,1,1s1-0.45,1-1C20,4.31,19.55,3.87,19,3.87z"/>
	<path d="M19.71,0.29c-0.037-0.037-0.089-0.054-0.132-0.084C19.413,0.086,19.22,0,19,0C11.28,0,5,6.28,5,14l-2.4-1.8
		c-0.44-0.333-1.067-0.242-1.399,0.2c-0.332,0.442-0.242,1.069,0.2,1.4l4,3c0.034,0.026,0.074,0.037,0.111,0.058
		c0.034,0.019,0.065,0.037,0.1,0.052C5.736,16.963,5.866,17,6,17l0,0c0,0,0,0,0,0c0.135,0,0.267-0.038,0.394-0.093
		c0.017-0.007,0.036-0.004,0.052-0.012c0.034-0.017,0.06-0.042,0.091-0.063C6.558,16.819,6.58,16.814,6.6,16.8l4-3
		c0.442-0.331,0.532-0.958,0.2-1.4c-0.331-0.442-0.959-0.533-1.399-0.2l-2.4,1.8v0C7,7.383,12.383,2,19,2
		c0.135,0,0.265-0.028,0.385-0.078c0.04-0.017,0.069-0.048,0.106-0.069c0.076-0.043,0.155-0.082,0.219-0.143
		c0.079-0.079,0.133-0.176,0.18-0.275c0.009-0.017,0.024-0.03,0.031-0.048C19.973,1.264,20,1.133,20,1
		c0-0.205-0.076-0.384-0.182-0.543C19.782,0.401,19.756,0.338,19.71,0.29z"/>
	<path d="M26.37,0c-0.551,0-1,0.45-1,1c0,0.55,0.449,1,1,1c0.56,0,1-0.45,1-1C27.37,0.45,26.93,0,26.37,0z"/>
	<circle cx="30.06" cy="1" r="1"/>
	<circle cx="33.75" cy="1" r="1"/>
	<path d="M37.439,0c-0.56,0-1,0.45-1,1c0,0.55,0.44,1,1,1c0.551,0,1-0.45,1-1C38.439,0.45,37.99,0,37.439,0z"/>
	<circle cx="22.689" cy="1" r="1"/>
	<path d="M41.13,2c0.26,0,0.52-0.11,0.7-0.29C42.02,1.52,42.12,1.26,42.12,1c0-0.26-0.101-0.52-0.29-0.71
		c-0.37-0.37-1.04-0.37-1.41,0c-0.19,0.19-0.3,0.45-0.3,0.71c0,0.26,0.109,0.52,0.3,0.71C40.6,1.89,40.859,2,41.13,2z"/>
	<path d="M41.12,44.53c0.56,0,1.01-0.44,1.01-1c0-0.55-0.45-1-1.01-1c-0.551,0-1,0.45-1,1C40.12,44.09,40.569,44.53,41.12,44.53z"/>
	<path d="M41.12,29.07c0.56,0,1.01-0.45,1.01-1c0-0.56-0.45-1-1.01-1c-0.551,0-1,0.44-1,1C40.12,28.62,40.569,29.07,41.12,29.07z"/>
	<path d="M41.12,48.4c0.56,0,1.01-0.45,1.01-1c0-0.55-0.45-1-1.01-1c-0.551,0-1,0.45-1,1C40.12,47.95,40.569,48.4,41.12,48.4z"/>
	<path d="M41.12,40.67c0.56,0,1.01-0.45,1.01-1c0-0.56-0.45-1-1.01-1c-0.551,0-1,0.44-1,1C40.12,40.22,40.569,40.67,41.12,40.67z"/>
	<path d="M41.12,32.93c0.56,0,1.01-0.44,1.01-1c0-0.55-0.45-1-1.01-1c-0.551,0-1,0.45-1,1C40.12,32.49,40.569,32.93,41.12,32.93z"/>
	<path d="M41.12,36.8c0.56,0,1.01-0.45,1.01-1s-0.45-1-1.01-1c-0.551,0-1,0.45-1,1S40.569,36.8,41.12,36.8z"/>
	<path d="M41.12,56.13c0.56,0,1.01-0.44,1.01-1c0-0.55-0.45-1-1.01-1c-0.551,0-1,0.45-1,1C40.12,55.69,40.569,56.13,41.12,56.13z"/>
	<path d="M41.12,52.27c0.56,0,1.01-0.45,1.01-1c0-0.56-0.45-1-1.01-1c-0.551,0-1,0.44-1,1C40.12,51.82,40.569,52.27,41.12,52.27z"/>
	<path d="M41.12,13.6c0.56,0,1.01-0.45,1.01-1c0-0.55-0.45-1-1.01-1c-0.551,0-1,0.45-1,1C40.12,13.15,40.569,13.6,41.12,13.6z"/>
	<path d="M41.12,9.73c0.56,0,1.01-0.45,1.01-1c0-0.55-0.45-1-1.01-1c-0.551,0-1,0.45-1,1C40.12,9.28,40.569,9.73,41.12,9.73z"/>
	<path d="M41.12,5.87c0.56,0,1.01-0.45,1.01-1c0-0.56-0.45-1-1.01-1c-0.551,0-1,0.44-1,1C40.12,5.42,40.569,5.87,41.12,5.87z"/>
	<path d="M41.12,17.47c0.56,0,1.01-0.45,1.01-1c0-0.56-0.45-1-1.01-1c-0.551,0-1,0.44-1,1C40.12,17.02,40.569,17.47,41.12,17.47z"/>
	<path d="M41.12,25.2c0.56,0,1.01-0.45,1.01-1c0-0.55-0.45-1-1.01-1c-0.551,0-1,0.45-1,1C40.12,24.75,40.569,25.2,41.12,25.2z"/>
	<path d="M41.12,21.33c0.56,0,1.01-0.44,1.01-1c0-0.55-0.45-1-1.01-1c-0.551,0-1,0.45-1,1C40.12,20.89,40.569,21.33,41.12,21.33z"/>
	<circle cx="33.75" cy="59" r="1"/>
	<circle cx="30.06" cy="59" r="1"/>
	<circle cx="37.439" cy="59" r="1"/>
	<path d="M26.38,58c-0.561,0-1,0.45-1,1c0,0.55,0.439,1,1,1c0.55,0,0.99-0.45,0.99-1C27.37,58.45,26.93,58,26.38,58z"/>
	<path d="M22.689,58c-0.56,0-1,0.45-1,1c0,0.55,0.44,1,1,1c0.551,0,1-0.45,1-1C23.689,58.45,23.24,58,22.689,58z"/>
	<path d="M45,18h-1h-1v24h1.246H45h15V18H45z"/>
	<path d="M55.6,43.2c-0.02-0.015-0.043-0.022-0.063-0.035c-0.029-0.019-0.058-0.033-0.088-0.049
		c-0.082-0.041-0.166-0.071-0.254-0.088c-0.026-0.005-0.049-0.014-0.075-0.017c-0.111-0.013-0.224-0.008-0.334,0.017
		c-0.027,0.006-0.052,0.018-0.079,0.027c-0.051,0.016-0.104,0.027-0.153,0.051c-0.038,0.019-0.069,0.048-0.104,0.071
		c-0.015,0.01-0.034,0.012-0.049,0.023l-4,3c-0.442,0.331-0.532,0.958-0.2,1.4c0.196,0.262,0.496,0.4,0.801,0.4
		c0.209,0,0.419-0.065,0.599-0.2L54,46v0c0,6.617-5.383,12-12,12c-0.161,0-0.308,0.047-0.443,0.115
		c-0.371-0.169-0.845-0.117-1.137,0.175c-0.19,0.19-0.3,0.45-0.3,0.71c0,0.26,0.109,0.52,0.3,0.71C40.6,59.89,40.859,60,41.13,60
		c0.151,0,0.296-0.046,0.431-0.112C41.695,59.955,41.84,60,42,60c7.72,0,14-6.28,14-14l2.4,1.8c0.442,0.333,1.069,0.243,1.399-0.2
		c0.332-0.442,0.242-1.069-0.2-1.4L55.6,43.2z"/>
	<path d="M15,18H0v24h15h1h1V18h-1H15z"/>
</g>
<g>
</g>
<g>
</g>
<g>
</g>
<g>
</g>
<g>
</g>
<g>
</g>
<g>
</g>
<g>
</g>
<g>
</g>
<g>
</g>
<g>
</g>
<g>
</g>
<g>
</g>
<g>
</g>
<g>
</g>
</svg>
